<mxfile host="app.diagrams.net" modified="2023-06-22T06:42:19.862Z" agent="Mozilla/5.0 (Macintosh; Intel Mac OS X 10_15_7) AppleWebKit/537.36 (KHTML, like Gecko) Chrome/114.0.0.0 Safari/537.36" etag="sKiEdkhsatc2ZAVYogYM" version="21.5.0" type="github">
  <diagram name="Page-1" id="Y2ReX460H2dDcdEjLJS4">
    <mxGraphModel dx="954" dy="523" grid="1" gridSize="10" guides="1" tooltips="1" connect="1" arrows="1" fold="1" page="1" pageScale="1" pageWidth="827" pageHeight="1169" math="0" shadow="0">
      <root>
        <mxCell id="0" />
        <mxCell id="1" parent="0" />
      </root>
    </mxGraphModel>
  </diagram>
</mxfile>
